<svg width="16" height="16" viewBox="0 0 16 16" fill="none" xmlns="http://www.w3.org/2000/svg">
<path d="M14.8801 8.00009C14.8801 8.00009 11.8401 8.00009 8.00012 8.00009C4.16012 8.00009 1.12012 8.00009 1.12012 8.00009" stroke="white" stroke-width="0.4" stroke-miterlimit="10"/>
<path d="M14.8801 7.04008C14.8801 7.04008 12.5601 4.40009 8.00012 4.40009C3.44012 4.40009 1.12012 7.04008 1.12012 7.04008" stroke="white" stroke-width="0.4" stroke-miterlimit="10"/>
<path d="M1.12012 8.96005C1.12012 8.96005 3.44012 11.6 8.00012 11.6C12.5601 11.6 14.8801 8.96005 14.8801 8.96005" stroke="white" stroke-width="0.4" stroke-miterlimit="10"/>
<path d="M8.00024 1.12C8.00024 1.12 8.00024 4.16 8.00024 8C8.00024 11.84 8.00024 14.88 8.00024 14.88" stroke="white" stroke-width="0.4" stroke-miterlimit="10"/>
<path d="M7.04015 1.12C7.04015 1.12 4.40015 3.44 4.40015 8C4.40015 12.56 7.04015 14.88 7.04015 14.88" stroke="white" stroke-width="0.4" stroke-miterlimit="10"/>
<path d="M8.96021 14.88C8.96021 14.88 11.6002 12.56 11.6002 8C11.6002 3.44 8.96021 1.12 8.96021 1.12" stroke="white" stroke-width="0.4" stroke-miterlimit="10"/>
<path fill-rule="evenodd" clip-rule="evenodd" d="M15.2 7.99999C15.2 12 12 15.2 8.00005 15.2C4.00005 15.2 0.800049 12 0.800049 7.99999C0.800049 3.99999 4.00005 0.799988 8.00005 0.799988C12 0.799988 15.2 3.99999 15.2 7.99999Z" fill="white" fill-opacity="0.5" stroke="white" stroke-width="0.8" stroke-miterlimit="10"/>
</svg>
